General
Complete name                    : Finding Forrester.mkv
Format                           : Matroska
File size                        : 1.13 GiB
Duration                         : 2h 10mn
Overall bit rate                 : 1 243 Kbps


Video
ID                               : 1
Format                           : AVC
Duration                         : 2h 10mn
Bit rate                         : 770 Kbps
Width                            : 720 pixels
Height                           : 436 pixels
Display aspect ratio             : 2.35:1
Frame rate                       : 25.000 fps
Resolution                       : 8 bits
Colorimetry                      : 4:2:0
Scan type                        : Progressive
Bits/(Pixel*Frame)               : 0.098
Stream size                      : 720 MiB (62%)
Writing library                  : x264 core 79


Audio
ID                               : 2
Format                           : AC-3
Format/Info                      : Audio Coding 3
Codec ID                         : A_AC3
Duration                         : 2h 10mn
Bit rate mode                    : Constant
Bit rate                         : 448 Kbps
Channel(s)                       : 6 channels
Channel positions                : Front: L C R, Surround: L R, LFE
Sampling rate                    : 48.0 KHz
Stream size                      : 419 MiB (36%)
Language                         : English

Text #1
Language                         : English

Text #2
Language                         : Danish

Text #3
Language                         : Dutch

Text #4
Language                         : Finnish

Text #5
Language                         : Icelandic

Text #6
Language                         : Norwegian

Text #7
Language                         : Swedish

Text #8
Language                         : Spanish

Text #9
Language                         : French


